<svg aria-hidden="true" style="position: absolute; width: 0; height: 0; overflow: hidden;" version="1.1"
    xmlns="http://www.w3.org/2000/svg" xmlns:xlink="http://www.w3.org/1999/xlink">
    <defs>
        <symbol id="icon-arrow-left" viewBox="0 0 42 32">
            <path
                d="M0.586 14.586c-0.362 0.362-0.586 0.862-0.586 1.414s0.224 1.052 0.586 1.414l12.728 12.728c0.359 0.347 0.849 0.561 1.389 0.561 1.105 0 2-0.895 2-2 0-0.54-0.214-1.030-0.562-1.39l0.001 0.001-11.314-11.314 11.314-11.314c0.335-0.357 0.541-0.838 0.541-1.368 0-1.105-0.895-2-2-2-0.53 0-1.012 0.206-1.37 0.543l0.001-0.001-12.728 12.726zM42 14h-40v4h40v-4z">
            </path>
        </symbol>
        <symbol id="icon-arrow-right" viewBox="0 0 42 32">
            <path
                d="M41.414 17.414c0.362-0.362 0.586-0.862 0.586-1.414s-0.224-1.052-0.586-1.414l-12.728-12.728c-0.364-0.377-0.874-0.611-1.439-0.611-1.105 0-2 0.895-2 2 0 0.565 0.234 1.074 0.61 1.438l0.001 0.001 11.314 11.314-11.314 11.314c-0.347 0.359-0.561 0.849-0.561 1.389 0 1.105 0.895 2 2 2 0.54 0 1.030-0.214 1.39-0.562l-0.001 0.001 12.728-12.728zM0 18h40v-4h-40v4z">
            </path>
        </symbol>
        <symbol id="icon-instagram" viewBox="0 0 32 32">
            <path
                d="M27.929 11.073c-0.015-1.065-0.219-2.079-0.58-3.014l0.020 0.059c-0.638-1.616-1.893-2.872-3.468-3.496l-0.042-0.015c-0.863-0.334-1.862-0.538-2.905-0.56l-0.009-0c-1.283-0.057-1.689-0.073-4.947-0.073-3.255 0-3.672 0-4.947 0.073-1.052 0.023-2.049 0.226-2.972 0.58l0.060-0.020c-1.617 0.638-2.873 1.894-3.496 3.469l-0.014 0.042c-0.335 0.863-0.538 1.861-0.559 2.905l-0 0.009c-0.057 1.284-0.075 1.691-0.075 4.947s0 3.672 0.075 4.947c0.020 0.997 0.208 1.981 0.559 2.916 0.639 1.616 1.895 2.872 3.47 3.495l0.042 0.015c0.86 0.347 1.856 0.564 2.899 0.6l0.015 0c1.284 0.057 1.691 0.075 4.947 0.075s3.673 0 4.947-0.075c1.052-0.021 2.051-0.224 2.975-0.579l-0.060 0.020c1.616-0.639 2.872-1.894 3.496-3.469l0.015-0.042c0.351-0.933 0.539-1.917 0.559-2.916 0.057-1.283 0.075-1.689 0.075-4.947-0.003-3.256-0.003-3.669-0.077-4.945zM15.992 22.136c-0 0-0.001 0-0.001 0-3.404 0-6.163-2.759-6.163-6.163 0-0 0-0.001 0-0.001v0c0.001-3.403 2.76-6.161 6.163-6.161s6.163 2.759 6.163 6.163c0 3.403-2.758 6.162-6.161 6.163h-0zM22.4 11.017c-0.003 0-0.007 0-0.011 0-0.792 0-1.435-0.642-1.435-1.435 0-0.598 0.366-1.11 0.886-1.326l0.009-0.004c0.162-0.068 0.349-0.108 0.546-0.108 0.793 0 1.436 0.643 1.436 1.436 0 0.792-0.64 1.434-1.431 1.436h-0z">
            </path>
            <path
                d="M15.992 19.976c2.211 0 4.004-1.793 4.004-4.004s-1.793-4.004-4.004-4.004v0c-2.211 0-4.004 1.793-4.004 4.004s1.793 4.004 4.004 4.004v0z">
            </path>
        </symbol>
        <symbol id="icon-facebook" viewBox="0 0 15 32">
            <path
                d="M3.89 31.352v-14.712h-3.89v-5.297h3.89v-4.524c0-3.555 2.296-6.819 7.592-6.819 2.144 0 3.729 0.206 3.729 0.206l-0.125 4.945s-1.615-0.015-3.38-0.015c-1.909 0-2.216 0.879-2.216 2.339v3.867h5.748l-0.25 5.297h-5.498v14.712h-5.6z">
            </path>
        </symbol>
        <symbol id="icon-phone" viewBox="0 0 32 32">
            <path
                d="M21.334 1.334h-10.668c-2.208 0.002-3.998 1.792-4 4v21.333c0.002 2.208 1.792 3.998 4 4h10.668c2.208-0.002 3.998-1.792 4-4v-21.333c-0.002-2.208-1.792-3.998-4-4h-0zM18.666 28h-5.332v-1.334h5.332v1.334zM23.001 24h-14v-18.666h14v18.666z">
            </path>
        </symbol>
        <symbol id="icon-download" viewBox="0 0 32 32">
<path style="fill: var(--color1, #fff)" d="M28.5 8.5c0.167 0.167 0.333 0.381 0.5 0.643h-8.429v-8.429c0.262 0.167 0.476 0.333 0.643 0.5l7.286 7.286zM20 11.429h9.714v18.857c0 0.476-0.167 0.881-0.5 1.214s-0.738 0.5-1.214 0.5h-24c-0.476 0-0.881-0.167-1.214-0.5s-0.5-0.738-0.5-1.214v-28.571c0-0.476 0.167-0.881 0.5-1.214s0.738-0.5 1.214-0.5h14.286v9.714c0 0.476 0.167 0.881 0.5 1.214s0.738 0.5 1.214 0.5zM22.857 24.571v-1.143c0-0.167-0.053-0.304-0.161-0.411s-0.244-0.161-0.411-0.161h-12.571c-0.167 0-0.304 0.054-0.411 0.161s-0.161 0.244-0.161 0.411v1.143c0 0.167 0.054 0.304 0.161 0.411s0.244 0.161 0.411 0.161h12.571c0.167 0 0.304-0.054 0.411-0.161s0.161-0.244 0.161-0.411zM22.857 20v-1.143c0-0.167-0.053-0.303-0.161-0.411s-0.244-0.161-0.411-0.161h-12.571c-0.167 0-0.304 0.053-0.411 0.161s-0.161 0.244-0.161 0.411v1.143c0 0.167 0.054 0.304 0.161 0.411s0.244 0.161 0.411 0.161h12.571c0.167 0 0.304-0.053 0.411-0.161s0.161-0.244 0.161-0.411zM22.857 15.429v-1.143c0-0.167-0.053-0.304-0.161-0.411s-0.244-0.161-0.411-0.161h-12.571c-0.167 0-0.304 0.054-0.411 0.161s-0.161 0.244-0.161 0.411v1.143c0 0.167 0.054 0.304 0.161 0.411s0.244 0.161 0.411 0.161h12.571c0.167 0 0.304-0.054 0.411-0.161s0.161-0.244 0.161-0.411z"></path>
</symbol>
        <symbol id="icon-furniture" viewBox="0 0 32 32">
            <path
                d="M27.988-61.523c-0 0-0 0-0 0-0.276 0-0.499-0.224-0.499-0.499 0-0 0-0 0-0.001v0-2.424h-22.977v2.424c0 0.276-0.224 0.5-0.5 0.5s-0.5-0.224-0.5-0.5v0-8.688c0-1.47 1.196-2.667 2.665-2.667h19.646c1.47 0 2.667 1.197 2.667 2.667v8.688c0 0 0 0 0 0.001 0 0.276-0.224 0.499-0.499 0.499 0 0 0 0 0 0v0zM4.511-65.447h22.977v-5.264c-0.001-0.92-0.746-1.666-1.666-1.667h-19.646c-0.919 0.002-1.664 0.747-1.664 1.667v5.265h-0zM29.999-73.476h-27.998c-0.276 0-0.5-0.224-0.5-0.5s0.224-0.5 0.5-0.5v0h27.999c0.276 0 0.5 0.224 0.5 0.5s-0.224 0.5-0.5 0.5v0zM-180.765-16.589c-0.276-0-0.5-0.224-0.5-0.5v-4.631h-5.718v4.631c-0.009 0.27-0.229 0.485-0.5 0.485s-0.491-0.215-0.5-0.484l-0-0.001v-7.323h-0.928c-0.267-0.012-0.478-0.231-0.478-0.5s0.212-0.488 0.477-0.5l0.001-0h7.699l0.713-6.413v-3.086c0.012-0.267 0.231-0.478 0.5-0.478s0.488 0.212 0.5 0.477l0 0.001v3.106l-0 0.036c-0.001 0.013-0.002 0.024-0.003 0.035l0-0.002-0.761 6.85v7.795c-0 0.276-0.224 0.5-0.5 0.5v0zM-186.983-22.72h5.718v-1.692h-5.718v1.692zM-194-16.589c-0.001 0-0.002 0-0.003 0-0.015 0-0.029-0.001-0.043-0.002l0.002 0h-3.313c-0.267-0.012-0.478-0.231-0.478-0.5s0.212-0.488 0.477-0.5l0.001-0h2.858v-11.415h-8.114c-0.007 0-0.014 0-0.022 0-0.276 0-0.5-0.224-0.5-0.5s0.224-0.5 0.5-0.5c0.008 0 0.015 0 0.023 0.001l-0.001-0h17.232c0.267 0.012 0.478 0.231 0.478 0.5s-0.212 0.488-0.477 0.5l-0.001 0h-8.117v11.415h2.86c0.267 0.012 0.478 0.231 0.478 0.5s-0.212 0.488-0.477 0.5l-0.001 0h-3.315c-0.012 0.001-0.027 0.002-0.041 0.002-0.001 0-0.002 0-0.004 0h0zM-200.517-16.589c-0.276 0-0.5-0.224-0.5-0.5v-4.631h-5.717v4.631c-0.012 0.267-0.231 0.478-0.5 0.478s-0.488-0.212-0.5-0.477l-0-0.001v-7.795l-0.761-6.851c-0.001-0.010-0.002-0.022-0.003-0.035l-0-0.001c-0.001-0.011-0.001-0.022-0.001-0.034v-3.106c0.012-0.267 0.231-0.478 0.5-0.478s0.488 0.212 0.5 0.477l0 0.001v3.086l0.713 6.413h7.698c0.267 0.012 0.478 0.231 0.478 0.5s-0.212 0.488-0.477 0.5l-0.001 0h-0.928v7.323c0 0 0 0 0 0 0 0.276-0.224 0.499-0.499 0.499-0 0-0 0-0 0h0zM-206.735-22.72h5.717v-1.692h-5.717v1.692zM-140.011-18.898c-0.276-0-0.5-0.224-0.5-0.5v-1.376h-11.49c-0 0-0 0-0 0-0.276 0-0.499-0.224-0.499-0.499 0-0 0-0.001 0-0.001v0-9.576h-10.99v11.452c-0.009 0.27-0.229 0.485-0.5 0.485s-0.491-0.215-0.5-0.484l-0-0.001v-11.452h-1.51c-0.276-0-0.5-0.224-0.5-0.5v-1.251c0-0.276 0.224-0.499 0.5-0.499h28c0.276 0 0.5 0.224 0.5 0.499v1.251c0 0.276-0.224 0.499-0.5 0.499h-1.51v11.453c0 0.276-0.224 0.499-0.5 0.499zM-151.501-21.775h10.99v-4.037h-10.99v4.037zM-151.501-26.812h10.99v-4.039h-10.99v4.039zM-140.011-31.851h1.511v-0.25h-27v0.25h25.489zM-145.35-23.293h-1.306c-0.276 0-0.5-0.224-0.5-0.5s0.224-0.5 0.5-0.5h1.306c0.276 0 0.5 0.224 0.5 0.5s-0.224 0.5-0.5 0.5v0zM-145.35-28.333h-1.306c-0.276 0-0.5-0.224-0.5-0.5s0.224-0.5 0.5-0.5h1.306c0.276 0 0.5 0.224 0.5 0.5s-0.224 0.5-0.5 0.5v0zM-98.011-18.898c-0.276-0-0.5-0.224-0.5-0.5v-6.414h-22.979v6.414c-0.009 0.27-0.229 0.485-0.5 0.485s-0.491-0.215-0.5-0.484l-0-0.001v-11.453h-1.51c-0.276-0-0.5-0.224-0.5-0.5v-1.251c0-0.276 0.224-0.499 0.5-0.499h28c0.276 0 0.5 0.224 0.5 0.499v1.251c0 0.276-0.224 0.499-0.5 0.499h-1.51v11.453c0 0.276-0.224 0.499-0.5 0.499zM-109.501-26.812h10.99v-4.039h-10.99v4.039zM-121.489-26.812h10.99v-4.039h-10.99v4.039zM-98.011-31.851h1.511v-0.25h-27v0.25h25.489zM-103.35-28.333h-1.306c-0.267-0.012-0.478-0.231-0.478-0.5s0.212-0.488 0.477-0.5l0.001-0h1.306c0.267 0.012 0.478 0.231 0.478 0.5s-0.212 0.488-0.477 0.5l-0.001 0zM-115.342-28.41h-1.307c-0.267-0.012-0.478-0.231-0.478-0.5s0.212-0.488 0.477-0.5l0.001-0h1.307c0.267 0.012 0.478 0.231 0.478 0.5s-0.212 0.488-0.477 0.5l-0.001 0zM-62.235-11.5c-0 0-0 0-0.001 0-0.276 0-0.499-0.224-0.499-0.499 0-0 0-0 0-0.001v0-1.51h-10.531v1.51c0 0.276-0.224 0.5-0.5 0.5s-0.5-0.224-0.5-0.5v0-9.44h-1.823c-0 0-0 0-0.001 0-0.276 0-0.499-0.224-0.499-0.499 0-0 0-0 0-0v0c0.024-0.961 0.784-1.703 1.733-1.703h0.717l0.004-10.945c0.132-3.324 2.827-5.912 6.135-5.912 0.006-0 0.013-0 0.020-0 3.3 0 5.99 2.612 6.115 5.882l0 0.011 0.006 10.964h0.718c0.933 0 1.711 0.758 1.733 1.688v0.015c0 0 0 0 0 0 0 0.276-0.224 0.499-0.499 0.499-0 0-0 0-0.001 0h-1.825v9.441c-0.001 0.276-0.225 0.5-0.501 0.5 0 0 0 0 0 0v0zM-73.266-14.511h10.531v-2.965h-10.531v2.965zM-73.266-18.476h10.531v-2.965h-10.531v2.965zM-62.235-22.44h1.597c-0.131-0.125-0.309-0.202-0.504-0.203h-13.715c-0.194 0-0.372 0.078-0.504 0.203h13.127zM-73.14-23.643h10.281l-0.005-10.944c-0.109-2.746-2.365-4.913-5.136-4.913-0.004 0-0.010-0-0.015-0-2.763 0-5.015 2.186-5.121 4.923l-0 0.010-0.004 10.925zM-67.372-15.491h-1.255c-0.276 0-0.5-0.224-0.5-0.5s0.224-0.5 0.5-0.5v0h1.255c0.276 0 0.5 0.224 0.5 0.5s-0.224 0.5-0.5 0.5v0zM-67.372-19.459h-1.255c-0.276 0-0.5-0.224-0.5-0.5s0.224-0.5 0.5-0.5v0h1.255c0.276 0 0.5 0.224 0.5 0.5s-0.224 0.5-0.5 0.5v0zM-70.835-28.236c-0.001 0-0.001 0-0.002 0-0.276 0-0.499-0.223-0.499-0.499 0-0.139 0.056-0.264 0.148-0.354l5.67-5.67c0.090-0.090 0.215-0.146 0.353-0.146 0.276 0 0.5 0.224 0.5 0.5 0 0.138-0.056 0.263-0.146 0.353v0l-5.67 5.67c-0.090 0.090-0.214 0.146-0.352 0.146-0.001 0-0.001 0-0.001 0h0zM-68.365-28.586c-0.276-0-0.5-0.224-0.5-0.5 0-0.138 0.056-0.263 0.146-0.353v0l2.85-2.849c0.090-0.085 0.211-0.137 0.344-0.137 0.276 0 0.5 0.224 0.5 0.5 0 0.134-0.053 0.255-0.138 0.345l-2.85 2.848c-0.090 0.090-0.215 0.146-0.353 0.146v0zM-70.485-30.707c-0.001 0-0.001 0-0.002 0-0.276 0-0.499-0.223-0.499-0.499 0-0.139 0.056-0.264 0.148-0.354l2.848-2.85c0.090-0.090 0.215-0.146 0.353-0.146 0.276 0 0.5 0.224 0.5 0.5 0 0.138-0.056 0.263-0.147 0.354v0l-2.848 2.849c-0.090 0.090-0.215 0.146-0.353 0.146-0 0-0 0-0.001 0h0zM-32.877-11.5c-0.276-0.001-0.499-0.225-0.499-0.501 0-0.071 0.015-0.139 0.042-0.201l-0.001 0.003 0.361-0.834h-0.795c-0.276 0-0.499-0.223-0.499-0.499v-10.687c0-0.291 0.262-0.52 0.544-0.498h4.192v-5.876h-4.237c-0.276-0-0.5-0.224-0.5-0.5 0-0.028 0.002-0.055 0.007-0.081l-0 0.003 1.409-8.907c0.039-0.24 0.245-0.422 0.493-0.422 0 0 0.001 0 0.001 0h6.649c0.246 0 0.455 0.179 0.494 0.422l1.412 8.907c0.004 0.023 0.006 0.050 0.006 0.078 0 0.276-0.224 0.5-0.5 0.501h-1.116v2.378c0 0.276-0.224 0.5-0.5 0.5s-0.5-0.224-0.5-0.5v0-2.378h-2.118v5.876h10.256c0.283-0.022 0.544 0.207 0.544 0.498v10.687c0 0.276-0.224 0.5-0.5 0.5h-0.774l0.362 0.833c0.026 0.059 0.041 0.127 0.041 0.199 0 0.276-0.224 0.5-0.5 0.5-0.204 0-0.38-0.122-0.457-0.298l-0.001-0.003-0.534-1.232h-11.789l-0.532 1.231c-0.082 0.189-0.267 0.302-0.46 0.302zM-19.757-14.032h1.025v-4.342h-14.537v4.342h1.044c0.003-0 0.007-0 0.011-0s0.008 0 0.012 0l-0.001-0h12.422c0.003-0 0.007-0 0.011-0s0.008 0 0.012 0l-0.001-0zM-33.268-19.375h14.537v-4.343h-14.537v4.343zM-25.914-31.594h1.031l-1.254-7.906h-5.795l-1.251 7.906h7.269zM-25.154-15.701h-1.694c-0.276 0-0.5-0.224-0.5-0.5s0.224-0.5 0.5-0.5v0h1.694c0.276 0 0.5 0.224 0.5 0.5s-0.224 0.5-0.5 0.5v0zM-25.154-21.048h-1.694c-0.276 0-0.5-0.224-0.5-0.5s0.224-0.5 0.5-0.5v0h1.694c0.276 0 0.5 0.224 0.5 0.5s-0.224 0.5-0.5 0.5v0zM29.215-19.995c-0.194 0-0.378-0.113-0.459-0.301l-0.468-1.079h-24.557l-0.466 1.078c-0.084 0.166-0.253 0.278-0.448 0.278-0.276 0-0.5-0.224-0.5-0.5 0-0.063 0.012-0.123 0.033-0.178l-0.001 0.003 0.294-0.681h-0.641c-0 0-0 0-0 0-0.276 0-0.499-0.224-0.499-0.499 0-0 0-0 0-0v0-9.629c0-0.287 0.257-0.516 0.531-0.499h13.936c0.011-0.001 0.022-0.003 0.032-0.001 0.013-0.003 0.021 0 0.032 0.001h13.936c0.271-0.017 0.531 0.212 0.531 0.499v9.629c0 0.276-0.223 0.5-0.5 0.5h-0.622l0.295 0.681c0.026 0.059 0.041 0.127 0.041 0.199 0 0.276-0.223 0.499-0.499 0.499v0zM28.627-22.374h0.873v-3.815h-12.999v3.815h12.104c0.003-0 0.007-0 0.011-0s0.008 0 0.011 0l-0-0zM3.413-22.374h12.086v-3.815h-12.999v3.815h0.891c0.003-0 0.007-0 0.011-0s0.008 0 0.011 0l-0.001-0zM16.501-27.189h12.999v-3.813h-12.999v3.813zM2.5-27.189h12.999v-3.813h-12.999v3.813zM23.763-23.781h-1.526c-0.276 0-0.5-0.224-0.5-0.5s0.224-0.5 0.5-0.5v0h1.526c0.276 0 0.5 0.224 0.5 0.5s-0.224 0.5-0.5 0.5v0zM9.761-23.781h-1.525c-0.276 0-0.5-0.224-0.5-0.5s0.224-0.5 0.5-0.5v0h1.526c0.276 0 0.5 0.224 0.5 0.5s-0.224 0.5-0.5 0.5c-0 0-0 0-0 0v0zM23.763-28.596h-1.526c-0.276 0-0.5-0.224-0.5-0.5s0.224-0.5 0.5-0.5v0h1.526c0.276 0 0.5 0.224 0.5 0.5s-0.224 0.5-0.5 0.5v0zM9.761-28.596h-1.525c-0.276 0-0.5-0.224-0.5-0.5s0.224-0.5 0.5-0.5v0h1.526c0.276 0 0.5 0.224 0.5 0.5s-0.224 0.5-0.5 0.5c-0 0-0 0-0 0v0zM-207.195 22.003c-0 0-0 0-0 0-0.276 0-0.499-0.224-0.499-0.499 0-0.072 0.015-0.14 0.043-0.202l-0.001 0.003 0.294-0.681h-0.641c-0 0-0 0-0 0-0.276 0-0.499-0.224-0.499-0.499 0-0 0-0 0-0v0-9.629c0-0.276 0.224-0.5 0.5-0.5h28c0.276 0 0.5 0.223 0.5 0.5v9.628c0 0 0 0 0 0 0 0.276-0.224 0.499-0.499 0.499-0 0-0 0-0 0h-0.622l0.295 0.68c0.026 0.059 0.041 0.127 0.041 0.199 0 0.276-0.224 0.5-0.5 0.5-0.204 0-0.38-0.123-0.458-0.298l-0.001-0.003-0.468-1.078h-24.557l-0.467 1.078c-0.078 0.179-0.254 0.302-0.459 0.302-0 0-0 0-0 0h0zM-181.373 19.624h0.873v-8.629h-12.999v8.628h12.126zM-206.586 19.624h12.085v-3.814h-13v3.814h0.914zM-207.5 14.81h13v-3.813h-13v3.814zM-200.238 18.218h-1.526c-0.276 0-0.5-0.224-0.5-0.5s0.224-0.5 0.5-0.5v0h1.526c0.276 0 0.5 0.224 0.5 0.5s-0.224 0.5-0.5 0.5v0zM-192.442 16.572c-0 0-0 0-0 0-0.276 0-0.499-0.224-0.499-0.499 0-0 0-0.001 0-0.001v0-1.526c0-0.276 0.224-0.5 0.5-0.5s0.5 0.224 0.5 0.5v0 1.527c0 0.276-0.224 0.499-0.5 0.499zM-200.238 13.401h-1.526c-0.276 0-0.5-0.224-0.5-0.5s0.224-0.5 0.5-0.5v0h1.526c0.276 0 0.5 0.224 0.5 0.5s-0.224 0.5-0.5 0.5v0zM-139.383 24.059c-0.276 0-0.5-0.224-0.5-0.5v-0.175h-24.213v0.175c0 0.276-0.224 0.5-0.5 0.5s-0.5-0.224-0.5-0.5v0-0.175h-0.858c-0.287 0.032-0.544-0.207-0.544-0.498v-14.444c0-0.276 0.224-0.5 0.5-0.5h28c0 0 0 0 0.001 0 0.276 0 0.499 0.224 0.499 0.499 0 0.016-0.001 0.032-0.002 0.047l0-0.002v4.726c0.001 0.015 0.002 0.029 0.002 0.044v9.628c0 0 0 0.001 0 0.001 0 0.276-0.224 0.499-0.499 0.499-0 0-0 0-0 0h-0.883v0.175c-0.001 0.276-0.224 0.499-0.5 0.499 0 0 0 0 0 0v0zM-151.499 22.384h12.999v-3.814h-12.999v3.814zM-165.5 22.384h13v-3.814h-13v3.814zM-151.499 17.569h12.999v-4.269c-0.001-0.013-0.002-0.028-0.002-0.044v-4.316h-12.997v8.628zM-165.5 17.569h13.002v-8.628h-13.002v8.628zM-144.236 20.978h-1.526c-0.276 0-0.5-0.224-0.5-0.5s0.224-0.5 0.5-0.5h1.526c0.276 0 0.5 0.224 0.5 0.5s-0.224 0.5-0.5 0.5v0zM-158.238 20.978h-1.526c-0.276 0-0.5-0.224-0.5-0.5s0.224-0.5 0.5-0.5h1.526c0.276 0 0.5 0.224 0.5 0.5s-0.224 0.5-0.5 0.5v0zM-139.481 14.516c-0 0-0 0-0 0-0.276 0-0.499-0.224-0.499-0.499 0 0 0 0 0 0v0-1.525c0-0.276 0.224-0.5 0.5-0.5s0.5 0.224 0.5 0.5v0 1.524c0 0.276-0.224 0.5-0.5 0.5zM-164.528 14.516c-0 0-0 0-0 0-0.276 0-0.499-0.224-0.499-0.499 0 0 0 0 0 0v0-1.525c0-0.276 0.224-0.5 0.5-0.5s0.5 0.224 0.5 0.5v0 1.524c0 0 0 0 0 0.001 0 0.276-0.224 0.499-0.499 0.499-0 0-0 0-0 0h0zM-97.384 26.637c-0 0-0 0-0.001 0-0.276 0-0.499-0.224-0.499-0.499 0-0 0-0.001 0-0.001v0-0.177h-24.213v0.177c0 0.276-0.224 0.5-0.5 0.5s-0.5-0.224-0.5-0.5v0-0.177h-0.858c-0.285 0.032-0.544-0.207-0.544-0.498v-4.816c0-0.276 0.224-0.499 0.5-0.499h2.044v-1.283h-2.044c-0.276 0-0.5-0.224-0.5-0.5s0.224-0.5 0.5-0.5v0h11.97l0.337-1.094h-7.283c-0 0-0 0-0.001 0-0.276 0-0.499-0.224-0.499-0.499 0-0 0-0 0-0v0-10.405c0-0.276 0.224-0.5 0.5-0.5h17.953c0 0 0 0 0.001 0 0.276 0 0.499 0.224 0.499 0.499 0 0 0 0.001 0 0.001v-0 10.405c0 0 0 0.001 0 0.001 0 0.276-0.224 0.499-0.499 0.499-0 0-0 0-0.001 0h-7.284l0.337 1.094h11.971c0.276 0 0.5 0.224 0.5 0.5s-0.224 0.5-0.5 0.5h-2.043v1.282h2.043c0 0 0 0 0.001 0 0.276 0 0.499 0.224 0.499 0.499 0 0 0 0 0 0v-0 4.815c-0 0.276-0.224 0.499-0.499 0.499-0 0-0 0-0.001 0h-0.883v0.178c0 0.276-0.224 0.499-0.5 0.499zM-109.501 24.959h13.001v-3.814h-13.001v3.814zM-123.5 24.959h13v-3.814h-13v3.814zM-120.957 20.145h21.914v-1.282h-9.286c-0.003 0-0.007 0-0.011 0s-0.008-0-0.012-0l0.001 0h-3.297c-0.003 0-0.007 0-0.011 0s-0.008-0-0.012-0l0.001 0h-9.285v1.282h-0.001zM-110.983 17.862h1.966l-0.337-1.094h-1.292l-0.337 1.094zM-108.974 15.769h7.45v-9.405h-16.953v9.406h7.449c0.003 0 0.007 0 0.011 0s0.008-0 0.012-0l-0.001 0 2.031-0.001zM-102.236 23.554h-1.526c-0.276 0-0.5-0.224-0.5-0.5s0.224-0.5 0.5-0.5h1.526c0.276 0 0.5 0.224 0.5 0.5s-0.224 0.5-0.5 0.5v0zM-116.238 23.554h-1.526c-0.276 0-0.5-0.224-0.5-0.5s0.224-0.5 0.5-0.5h1.526c0.276 0 0.5 0.224 0.5 0.5s-0.224 0.5-0.5 0.5v0zM-63.333 22.666c-0 0-0.001 0-0.001 0-0.276 0-0.499-0.224-0.499-0.499 0-0 0-0.001 0-0.001v0-1.021h-8.337v1.022c0 0.276-0.224 0.5-0.5 0.5s-0.5-0.224-0.5-0.5v0-1.022h-8.33v1.010c0 0.276-0.224 0.5-0.5 0.5s-0.5-0.224-0.5-0.5v0-12.319c0-0.276 0.224-0.5 0.5-0.5h27.999c0.276 0 0.5 0.223 0.5 0.5v12.317c0 0.276-0.224 0.5-0.5 0.5s-0.5-0.224-0.5-0.5v0-1.008h-8.333v1.022c0 0 0 0.001 0 0.001 0 0.276-0.224 0.499-0.499 0.499-0 0-0 0-0.001 0h0zM-62.833 20.144h8.333v-6.776h-8.333v6.776zM-72.17 20.144h8.337v-8.275h-8.337v8.275zM-81.5 20.144h8.33v-6.776h-8.33v6.776zM-62.833 12.368h8.333v-2.033h-8.333v2.033zM-81.5 12.368h8.33v-2.033h-8.33v2.033zM-72.17 10.868h8.337v-0.534h-8.337v0.534zM-62.214 17.748c-0 0-0.001 0-0.001 0-0.276 0-0.499-0.224-0.499-0.499 0 0 0 0 0 0v0-0.985c0-0.276 0.224-0.5 0.5-0.5s0.5 0.224 0.5 0.5v0 0.985c0 0 0 0 0 0 0 0.276-0.224 0.499-0.499 0.499-0 0-0 0-0.001 0h0zM-73.788 17.748c-0 0-0 0-0.001 0-0.276 0-0.499-0.224-0.499-0.499 0 0 0 0 0 0v0-0.985c0-0.276 0.224-0.5 0.5-0.5s0.5 0.224 0.5 0.5v0 0.985c0 0.276-0.223 0.5-0.5 0.5zM-58.157 11.74h-1.017c-0.276 0-0.5-0.224-0.5-0.5s0.224-0.5 0.5-0.5v0h1.017c0.276 0 0.5 0.224 0.5 0.5s-0.224 0.5-0.5 0.5v0zM-76.826 11.74h-1.015c-0.276 0-0.5-0.224-0.5-0.5s0.224-0.5 0.5-0.5v0h1.015c0.276 0 0.5 0.224 0.5 0.5s-0.224 0.5-0.5 0.5v0zM-19.216 30.499h-13.569c-0 0-0 0-0.001 0-0.276 0-0.499-0.224-0.499-0.499 0-0 0-0 0-0v0-27.999c0-0.276 0.223-0.5 0.499-0.5h13.572c0 0 0 0 0.001 0 0.276 0 0.499 0.224 0.499 0.499 0 0.016-0.001 0.032-0.002 0.047l0-0.002v9.246c0.001 0.013 0.002 0.029 0.002 0.044s-0.001 0.031-0.002 0.046l0-0.002v9.244c0.001 0.013 0.002 0.029 0.002 0.045s-0.001 0.031-0.002 0.047l0-0.002v9.286c0 0 0 0 0 0 0 0.276-0.224 0.499-0.499 0.499-0 0-0 0-0 0h0zM-32.286 29.5h12.57v-8.331h-12.57v8.331zM-32.286 20.166h12.57v-8.331h-12.57v8.331zM-32.286 10.832h12.57v-8.331h-12.57v8.331zM-31.36 26.575c-0 0-0 0-0 0-0.276 0-0.499-0.224-0.499-0.499 0-0 0-0 0-0v0-1.479c0-0.276 0.224-0.5 0.5-0.5s0.5 0.224 0.5 0.5v0 1.479c0 0.276-0.223 0.499-0.5 0.499zM-31.36 17.239c-0 0-0 0-0 0-0.276 0-0.499-0.224-0.499-0.499 0 0 0 0 0 0v0-1.477c0-0.276 0.224-0.5 0.5-0.5s0.5 0.224 0.5 0.5v0 1.477c0 0.276-0.223 0.5-0.5 0.5zM-31.36 7.905c-0 0-0 0-0 0-0.276 0-0.499-0.224-0.499-0.499 0-0 0-0 0-0v0-1.477c0-0.276 0.224-0.5 0.5-0.5s0.5 0.224 0.5 0.5v0 1.477c0 0.276-0.223 0.5-0.5 0.5zM29.57 30.499h-27.141c-0 0-0 0-0.001 0-0.276 0-0.499-0.224-0.499-0.499 0-0 0-0 0-0v0-27.999c0-0.276 0.223-0.5 0.499-0.5h27.141c0.276 0 0.5 0.223 0.5 0.5v27.999c0 0 0 0 0 0 0 0.276-0.224 0.499-0.499 0.499 0 0 0 0 0 0v0zM16.501 29.5h12.57v-26.999h-12.57v26.999zM2.929 29.5h12.57v-8.333h-12.57v8.333zM2.929 20.166h12.57v-17.666h-12.57v17.666zM14.42 26.575c-0 0-0.001 0-0.001 0-0.276 0-0.499-0.224-0.499-0.499 0-0 0-0 0-0v0-1.479c0-0.276 0.224-0.5 0.5-0.5s0.5 0.224 0.5 0.5v0 1.479c0 0.276-0.223 0.499-0.499 0.499zM17.58 17.239c-0 0-0.001 0-0.001 0-0.276 0-0.499-0.224-0.499-0.499 0 0 0 0 0 0v0-1.477c0-0.276 0.224-0.5 0.5-0.5s0.5 0.224 0.5 0.5v0 1.477c0 0.276-0.224 0.5-0.5 0.5zM14.42 17.239c-0 0-0 0-0.001 0-0.276 0-0.499-0.224-0.499-0.499 0 0 0 0 0 0v0-1.477c0-0.276 0.224-0.5 0.5-0.5s0.5 0.224 0.5 0.5v0 1.477c0 0.276-0.223 0.5-0.499 0.5zM-180.429 72.499h-27.142c-0 0-0 0-0 0-0.276 0-0.499-0.224-0.499-0.499 0-0 0-0 0-0.001v0-27.999c0-0.276 0.224-0.5 0.5-0.5h27.141c0 0 0 0 0 0 0.276 0 0.499 0.224 0.499 0.499 0 0 0 0 0 0.001v-0 27.999c0 0 0 0 0 0.001 0 0.276-0.224 0.499-0.499 0.499 0 0 0 0 0 0v0zM-193.499 71.5h12.57v-26.999h-12.57v26.999zM-207.071 71.5h12.571v-26.999h-12.571v26.999zM-187.215 67.797c-2.343 0-4.25-1.906-4.25-4.249v-11.095c0-2.343 1.907-4.25 4.25-4.25s4.252 1.906 4.252 4.25l-0.002 11.095c0 2.343-1.906 4.249-4.25 4.249zM-187.215 49.202c-1.794 0.002-3.248 1.456-3.25 3.25v11.095c0.002 1.794 1.456 3.248 3.25 3.249h0c1.794-0.002 3.248-1.456 3.25-3.249v-0l0.002-11.095c0-1.792-1.459-3.25-3.252-3.25zM-192.419 59.239c-0 0-0 0-0 0-0.276 0-0.499-0.224-0.499-0.499 0-0 0-0 0-0.001v0-1.477c0-0.276 0.224-0.5 0.5-0.5s0.5 0.224 0.5 0.5v0 1.477c0 0 0 0 0 0.001 0 0.276-0.224 0.499-0.499 0.499-0 0-0 0-0 0h0zM-195.58 59.239c-0 0-0 0-0 0-0.276 0-0.499-0.224-0.499-0.499 0-0 0-0 0-0.001v0-1.477c0-0.276 0.224-0.5 0.5-0.5s0.5 0.224 0.5 0.5v0 1.477c0 0 0 0 0 0.001 0 0.276-0.224 0.499-0.499 0.499-0 0-0.001 0-0.001 0h0zM-95.502 50.67c0-0.276-0.224-0.5-0.5-0.5s-0.5 0.224-0.5 0.5v0 5.471h-0.034c-0.047-1.099-0.949-1.979-2.059-1.979h-2.291c-1.11 0-2.011 0.88-2.058 1.979h-18.419c-0.001 0-0.001 0-0.002 0-0.826 0-1.576 0.32-2.135 0.842l0.002-0.002v-2.353c0-0.276-0.224-0.5-0.5-0.5s-0.5 0.224-0.5 0.5v0l-0.001 9.973c0 0.267 0.209 0.485 0.473 0.5v0.228c0 0.276 0.224 0.5 0.5 0.5s0.5-0.224 0.5-0.5v0-0.228h26.052v0.228c0 0.276 0.224 0.5 0.5 0.5s0.5-0.224 0.5-0.5v0-0.228c0.264-0.014 0.474-0.233 0.474-0.5l-0.001-13.932zM-100.886 55.163h2.291c0.558 0 1.016 0.429 1.064 0.972h-4.417c0.051-0.547 0.507-0.972 1.062-0.972h0zM-121.363 57.141h24.862v1.636h-26.939c0.235-0.945 1.076-1.635 2.077-1.636h0zM-123.5 64.101v-4.324h26.999l0.001 4.324h-27zM-53.503 61.064c0-0.277-0.224-0.5-0.5-0.5h-10.998v-4.62c0-0 0-0 0-0.001 0-0.276-0.224-0.499-0.499-0.499-0 0-0 0-0.001 0h-5c-0 0-0.001 0-0.001 0-0.276 0-0.499 0.224-0.499 0.499 0 0 0 0 0 0.001v-0 4.62h-2.29c0.282-0.886-0.57-4.631-0.305-5.341 0.020-0.052 0.032-0.112 0.032-0.175 0-0.276-0.224-0.499-0.499-0.499-0 0-0 0-0 0h-0.674v-1.707h2.667c0 0 0 0 0.001 0 0.276 0 0.499-0.224 0.499-0.499 0-0.026-0.002-0.052-0.006-0.077l0 0.003-0.944-6.382c-0.037-0.243-0.244-0.427-0.494-0.427-0 0-0 0-0.001 0h-4.447c-0 0-0 0-0 0-0.25 0-0.457 0.184-0.494 0.424l-0 0.003-0.942 6.382c-0.004 0.022-0.006 0.048-0.006 0.074 0 0.276 0.224 0.499 0.499 0.499 0 0 0.001 0 0.001 0h2.665v1.707h-0.674c-0.164 0-0.318 0.080-0.411 0.215-0.056 0.079-0.089 0.178-0.089 0.284 0 0.063 0.012 0.123 0.033 0.179l-0.001-0.003c0.265 0.711-0.586 4.455-0.305 5.341h-4.814c-0 0-0 0-0.001 0-0.276 0-0.499 0.224-0.499 0.499 0 0 0 0.001 0 0.001v-0 8.249c0 0.267 0.209 0.485 0.472 0.499v0.23c0 0.276 0.224 0.5 0.5 0.5s0.5-0.224 0.5-0.5v0-0.229h26.052v0.229c0 0.276 0.224 0.5 0.5 0.5s0.5-0.224 0.5-0.5v0-0.229c0.265-0.014 0.474-0.232 0.474-0.499 0-0 0-0 0-0.001v0l-0.001-8.249zM-70.001 56.444h4.001v4.12h-4.001v-4.12zM-77.825 51.84l0.795-5.382h3.584l0.796 5.382h-5.174zM-75.781 55.548h1.085c-0.098 0.793 0.716 4.365 0.315 5.015h-1.714c-0.4-0.65 0.412-4.222 0.314-5.015zM-68.503 68.813h-12.997v-7.249h12.997v7.249zM-67.503 68.813v-7.249h13.001l0.002 7.249h-13.003z">
            </path>
        </symbol>
        <symbol id="icon-lighting" viewBox="0 0 21 32">
            <path
                d="M20.621 21.814c0.128 0 0.25-0.051 0.34-0.142s0.141-0.215 0.141-0.344c0-6.317-3.934-10.455-10.068-10.659v-10.182c0-0.129-0.051-0.253-0.141-0.344-0.087-0.088-0.207-0.142-0.34-0.142s-0.253 0.054-0.34 0.142l-0 0c-0.087 0.088-0.141 0.21-0.141 0.344 0 0 0 0 0 0.001v-0 10.182c-6.137 0.204-10.072 4.342-10.072 10.659 0 0.129 0.051 0.253 0.141 0.344s0.212 0.142 0.34 0.142h6.269c0.147 0.958 0.614 1.787 1.287 2.392l0.004 0.003c0.665 0.597 1.541 0.972 2.503 1l0.006 0c0.969-0.028 1.845-0.402 2.514-1.003l-0.004 0.003c0.677-0.608 1.145-1.437 1.289-2.373l0.003-0.022h6.269zM10.55 11.632c4.527 0 9.36 2.432 9.581 9.21h-19.17c0.228-6.777 5.060-9.21 9.588-9.21zM10.55 24.237c-0.702-0.029-1.337-0.296-1.83-0.722l0.004 0.003c-0.5-0.432-0.857-1.018-0.996-1.685l-0.003-0.020h5.653c-0.142 0.687-0.499 1.274-0.996 1.702l-0.004 0.003c-0.49 0.422-1.125 0.689-1.822 0.716l-0.006 0zM21.144 27.732l-2.985-2.302c-0.080-0.062-0.182-0.1-0.292-0.1-0.156 0-0.295 0.075-0.382 0.191l-0.001 0.001c-0.061 0.081-0.098 0.184-0.098 0.295 0 0.157 0.074 0.297 0.189 0.387l0.001 0.001 2.985 2.302c0.080 0.062 0.182 0.1 0.292 0.1 0.156 0 0.295-0.075 0.382-0.191l0.001-0.001c0.062-0.081 0.099-0.184 0.099-0.295 0-0.090-0.024-0.175-0.067-0.248l0.001 0.002c-0.033-0.056-0.074-0.103-0.123-0.142l-0.001-0.001zM3.723 25.391l-2.902 2.406c-0.118 0.073-0.201 0.193-0.224 0.333l-0 0.003c-0.004 0.024-0.006 0.051-0.006 0.079 0 0.119 0.042 0.228 0.112 0.313l-0.001-0.001c0.087 0.105 0.216 0.172 0.361 0.175h0.001c0.002 0 0.005 0 0.008 0 0.143 0 0.271-0.063 0.358-0.162l0-0.001 2.905-2.403c0.101-0.079 0.169-0.195 0.184-0.328l0-0.002c0.002-0.016 0.003-0.035 0.003-0.055 0-0.117-0.041-0.225-0.109-0.309l0.001 0.001c-0.080-0.098-0.197-0.164-0.33-0.176l-0.002-0c-0.012-0.001-0.027-0.002-0.041-0.002-0.121 0-0.232 0.045-0.316 0.12l0.001-0-0.003 0.009zM10.691 27.632c-0.128 0-0.25 0.051-0.34 0.143-0.087 0.088-0.141 0.21-0.141 0.344 0 0 0 0 0 0v0 3.395c0 0.129 0.051 0.253 0.141 0.344 0.087 0.088 0.207 0.142 0.34 0.142s0.253-0.054 0.34-0.142l0-0c0.090-0.091 0.141-0.215 0.141-0.344v-3.395c0-0.129-0.051-0.253-0.141-0.344-0.087-0.088-0.207-0.143-0.34-0.143h-0z">
            </path>
        </symbol>
        <symbol id="icon-equipment" viewBox="0 0 32 32">
            <path
                d="M29.295 0h-26.59c-0.987 0.001-1.786 0.8-1.787 1.787v26.591c0.001 0.986 0.801 1.785 1.787 1.785h0.866v1.353c0 0.268 0.217 0.485 0.485 0.485h4.221c0 0 0 0 0.001 0 0.268 0 0.485-0.217 0.485-0.485v0-1.353h14.475v1.353c0 0.268 0.217 0.485 0.485 0.485h4.221c0 0 0 0 0 0 0.268 0 0.485-0.217 0.485-0.485v0-1.353h0.866c0.987-0 1.786-0.799 1.787-1.786v-26.59c-0-0.987-0.8-1.787-1.787-1.787h-0zM2.705 0.969h26.59c0.45 0 0.817 0.367 0.817 0.818v4.845h-28.224v-4.845c0-0.451 0.366-0.818 0.818-0.818zM7.792 31.030h-3.251v-0.867h3.252v0.867zM27.459 31.030h-3.252v-0.867h3.252v0.867zM29.295 29.193h-26.589c-0.451 0-0.817-0.366-0.818-0.817v-20.775h28.225v20.775c0 0.45-0.368 0.817-0.818 0.817z">
            </path>
            <path
                d="M23.723 5.751c1.076-0.001 1.949-0.874 1.95-1.95v-0c-0.001-1.077-0.874-1.949-1.95-1.95h-0c-1.077 0.001-1.949 0.874-1.95 1.95v0c0.002 1.076 0.874 1.948 1.95 1.949h0zM23.723 2.82c0.54 0 0.98 0.44 0.98 0.981s-0.44 0.98-0.98 0.98c-0.541-0.001-0.98-0.439-0.98-0.98v-0c0-0.54 0.439-0.98 0.98-0.98zM16 5.751c1.076-0.001 1.948-0.874 1.949-1.95v-0c-0.001-1.076-0.873-1.949-1.949-1.95h-0c-1.077 0.001-1.949 0.874-1.95 1.95v0c0.002 1.076 0.874 1.948 1.95 1.949h0zM16 2.821c0.54 0 0.98 0.44 0.98 0.981s-0.44 0.98-0.98 0.98c-0.541-0.001-0.979-0.439-0.98-0.98v-0c0-0.54 0.44-0.98 0.98-0.98zM8.277 5.751c1.076-0.001 1.948-0.874 1.949-1.95v-0c0-1.075-0.874-1.95-1.949-1.95-1.077 0.001-1.949 0.874-1.95 1.95v0c0.002 1.076 0.874 1.948 1.95 1.949h0zM8.277 2.821c0.54 0 0.98 0.44 0.98 0.981s-0.44 0.98-0.98 0.98c-0.541-0.001-0.979-0.439-0.98-0.98v-0c0-0.54 0.44-0.98 0.98-0.98zM26.592 13.728h-21.182c-0.268 0-0.485 0.217-0.485 0.485v0 11.803c0 0.268 0.217 0.485 0.485 0.485h21.182c0 0 0 0 0 0 0.268 0 0.485-0.217 0.485-0.485v0-11.803c-0-0.268-0.218-0.485-0.486-0.485v0zM26.107 25.531h-20.213v-10.834h20.213v10.833z">
            </path>
        </symbol>
        <symbol id="icon-modal-close" viewBox="0 0 20 20">
<path d="M10 8.586l-7.071-7.071-1.414 1.414 7.071 7.071-7.071 7.071 1.414 1.414 7.071-7.071 7.071 7.071 1.414-1.414-7.071-7.071 7.071-7.071-1.414-1.414-7.071 7.071z"></path>
</symbol>
        <symbol id="icon-panels" viewBox="0 0 32 32">
            <path
                d="M30.387 29.629l-3.84-18.56c-0.063-0.293-0.32-0.509-0.627-0.509-0 0-0 0-0 0h-19.84c-0.304 0-0.566 0.214-0.627 0.509l-3.84 18.56c-0.038 0.189 0.010 0.384 0.131 0.534s0.304 0.237 0.496 0.237h27.52c0.354-0 0.641-0.288 0.641-0.641 0-0.046-0.005-0.091-0.014-0.134l0.001 0.004zM27.053 19.84h-10.413v-8h8.758l1.654 8zM6.602 11.84h8.758v8h-10.413l1.654-8zM4.694 21.059c0.080 0.038 0.17 0.061 0.266 0.061h10.4v8h-12.333l1.667-8.061zM16.64 29.12v-8h10.4c0.096 0 0.186-0.022 0.266-0.061l1.667 8.061h-12.333zM18.24 5.12c0.883 0 1.6 0.717 1.6 1.6 0 0.352 0.288 0.64 0.64 0.64s0.64-0.288 0.64-0.64c0-0.883 0.717-1.6 1.6-1.6 0.352 0 0.64-0.288 0.64-0.64s-0.288-0.64-0.64-0.64c-0.884-0-1.6-0.716-1.6-1.6v-0c0-0.352-0.288-0.64-0.64-0.64s-0.64 0.288-0.64 0.64c0 0.883-0.717 1.6-1.6 1.6-0.352 0-0.64 0.288-0.64 0.64s0.288 0.64 0.64 0.64zM20.48 4.045c0.128 0.16 0.275 0.304 0.435 0.435-0.16 0.128-0.304 0.275-0.435 0.435-0.131-0.161-0.274-0.304-0.43-0.431l-0.005-0.004c0.16-0.128 0.307-0.275 0.435-0.435zM9.28 6.4c0.883 0 1.6 0.717 1.6 1.6 0 0.352 0.288 0.64 0.64 0.64s0.64-0.288 0.64-0.64c0-0.883 0.717-1.6 1.6-1.6 0.352 0 0.64-0.288 0.64-0.64s-0.288-0.64-0.64-0.64c-0.884-0-1.6-0.716-1.6-1.6v-0c0-0.352-0.288-0.64-0.64-0.64s-0.64 0.288-0.64 0.64c0 0.883-0.717 1.6-1.6 1.6-0.352 0-0.64 0.288-0.64 0.64s0.288 0.64 0.64 0.64zM11.52 5.325c0.128 0.16 0.275 0.304 0.435 0.435-0.16 0.128-0.304 0.275-0.435 0.435-0.131-0.161-0.274-0.304-0.43-0.431l-0.005-0.004c0.16-0.128 0.307-0.275 0.435-0.435z">
            </path>
        </symbol>
        <symbol id="icon-design" viewBox="0 0 32 32">
            <path
                d="M25.43 5.66c0.001-0.033 0.001-0.071 0.001-0.109 0-2.966-2.322-5.389-5.247-5.55l-0.014-0.001c-0.001 0-0.003 0-0.004 0-1.002 0-1.932 0.306-2.703 0.831l0.017-0.011c-0.947-0.514-2.073-0.818-3.269-0.82h-0.001c-3.369 0.113-6.183 2.37-7.125 5.445l-0.014 0.055c-2.376 0.728-4.074 2.901-4.074 5.472 0 0.070 0.001 0.139 0.004 0.208l-0-0.010c-0.004 0.078-0.006 0.17-0.006 0.262 0 2.971 2.323 5.399 5.251 5.567l0.015 0.001h3.030l-3.56 6.47c-0.030 0.052-0.049 0.113-0.050 0.18v0c-0.006 0.017-0.010 0.037-0.010 0.058 0 0.004 0 0.009 0 0.013l-0-0.001-0.411 4.1v0.040l-0.339 3.39c-0.002 0.015-0.002 0.031-0.002 0.048 0 0.187 0.105 0.349 0.26 0.43l0.003 0.001c0.070 0.038 0.154 0.060 0.243 0.060 0.115 0 0.222-0.037 0.308-0.101l-0.001 0.001 2.7-2.11 3.24-2.54c0.084-0.040 0.15-0.106 0.189-0.188l0.001-0.002 5.43-9.85h4.45c2.943-0.17 5.266-2.598 5.266-5.569 0-0.092-0.002-0.183-0.007-0.274l0 0.013c0.001-0.045 0.002-0.097 0.002-0.15 0-2.4-1.456-4.461-3.534-5.345l-0.038-0.014zM12.439 17h2.28l-4.12 7.48-1.75-0.96 3.59-6.52zM8.030 30.18l0.17-1.744c0.473 0.12 0.88 0.352 1.207 0.668l-0.001-0.001-1.376 1.077zM10.199 28.48l-0.010 0.008c-0.496-0.516-1.141-0.886-1.866-1.040l-0.024-0.004v-0.014l0.29-2.92 1.939 1.080c0.010 0 0.010 0.010 0.020 0.010s0.010 0.010 0.020 0.010l1.94 1.071-2.31 1.8zM13.23 25.93h-0.010l-1.74-0.97 4.38-7.96h2.28l-4.91 8.929zM23.74 16h-15.48c-2.391-0.168-4.267-2.149-4.267-4.568 0-0.092 0.003-0.184 0.008-0.274l-0.001 0.012c-0.003-0.062-0.005-0.135-0.005-0.208 0-2.161 1.462-3.981 3.452-4.524l0.033-0.008h0.020c2.052 0.16 3.656 1.864 3.656 3.944 0 0.080-0.002 0.159-0.007 0.237l0.001-0.011c0 0.276 0.224 0.5 0.5 0.5s0.5-0.224 0.5-0.5v0c0.002-0.055 0.003-0.12 0.003-0.185 0-2.418-1.706-4.437-3.98-4.919l-0.033-0.006c0.902-2.565 3.26-4.39 6.058-4.489l0.012-0c1.051-0 2.083 0.279 2.99 0.81 0.010 0.010 0.020 0.010 0.030 0.020 0.949 0.669 1.609 1.694 1.787 2.877l0.003 0.024c0.010 0.050 0.010 0.090 0.020 0.14 0.031 0.247 0.238 0.437 0.489 0.44h0.060c0.251-0.035 0.443-0.248 0.443-0.506 0-0.019-0.001-0.037-0.003-0.056l0 0.002c0-0.002 0-0.004 0-0.006 0-0.013-0.004-0.024-0.011-0.034l0 0c-0.154-1.295-0.761-2.425-1.656-3.247l-0.004-0.003c0.523-0.288 1.147-0.458 1.809-0.46h0.001c2.374 0.158 4.24 2.123 4.24 4.523 0 0.013-0 0.026-0 0.039v-0.002c-0.61 0.068-1.162 0.264-1.647 0.56l0.018-0.010c-0.328 0.181-0.61 0.39-0.861 0.632l0.001-0.001c-0.413 0.391-0.761 0.846-1.026 1.351l-0.014 0.028c-0.036 0.067-0.058 0.146-0.058 0.23 0 0.193 0.112 0.36 0.275 0.439l0.003 0.001c0.063 0.037 0.139 0.059 0.219 0.060h0c0.002 0 0.004 0 0.006 0 0.192 0 0.359-0.108 0.442-0.267l0.001-0.003c0.229-0.445 0.523-0.823 0.876-1.136l0.004-0.003c0.236-0.228 0.51-0.419 0.811-0.562l0.019-0.008c0.393-0.203 0.856-0.327 1.346-0.339l0.004-0c0.010-0.010 0.010-0.010 0.019 0 1.853 0.67 3.154 2.415 3.154 4.463 0 0.062-0.001 0.124-0.004 0.186l0-0.009c0.005 0.078 0.007 0.169 0.007 0.261 0 2.419-1.876 4.4-4.253 4.567l-0.015 0.001zM23.19 10.56c0.018-0.050 0.029-0.107 0.029-0.167 0-0.123-0.045-0.236-0.119-0.324l0.001 0.001c-0.055-0.071-0.13-0.123-0.217-0.149l-0.003-0.001c-0.046-0.015-0.099-0.023-0.154-0.023-0.223 0-0.413 0.142-0.485 0.34l-0.001 0.004c-0.148 0.427-0.233 0.919-0.233 1.432 0 0.119 0.005 0.237 0.014 0.354l-0.001-0.015c0 0 0 0 0 0 0 0.003-0.001 0.005-0.003 0.007v0c-0.002 0.002-0.004 0.003-0.007 0.003-0 0-0 0-0 0h0c-0.010 0.020-0.010 0.030-0.019 0.040l0.030-0.020c0.032 0.62 0.203 1.194 0.481 1.701l-0.010-0.021c0.084 0.16 0.249 0.268 0.44 0.27h0c0.081 0.001 0.16-0.020 0.23-0.060 0.161-0.082 0.269-0.247 0.269-0.437 0-0.085-0.022-0.166-0.060-0.236l0.001 0.003c-0.235-0.454-0.372-0.992-0.372-1.561 0-0.408 0.071-0.8 0.201-1.163l-0.008 0.024zM10.21 12.62c-0.309 0.102-0.664 0.161-1.033 0.161-0.608 0-1.179-0.16-1.673-0.44l0.017 0.009c-0.073-0.044-0.161-0.070-0.255-0.070-0.276 0-0.499 0.224-0.499 0.499 0 0.197 0.115 0.368 0.281 0.449l0.003 0.001c0.621 0.345 1.362 0.549 2.15 0.55h0c0.448 0 0.894-0.070 1.32-0.21 0.203-0.064 0.347-0.25 0.347-0.47 0-0.057-0.010-0.112-0.028-0.164l0.001 0.003c-0.067-0.202-0.255-0.345-0.475-0.345-0.055 0-0.109 0.009-0.159 0.026l0.004-0.001zM18.8 11.66c-0.233-0.235-0.492-0.443-0.772-0.62l-0.018-0.011c-0.27-0.177-0.579-0.338-0.904-0.468l-0.035-0.012c-0.27-0.111-0.586-0.201-0.914-0.256l-0.027-0.004c-0.162-0.038-0.348-0.060-0.539-0.060h-0c-0.067-0.037-0.146-0.059-0.231-0.059-0.092 0-0.178 0.026-0.251 0.070l0.002-0.001h-0.010c-0.012-0.005-0.026-0.008-0.040-0.008s-0.028 0.003-0.041 0.008l0.001-0c-0.591 0.045-1.135 0.206-1.623 0.461l0.023-0.011c-0.144 0.089-0.239 0.247-0.239 0.427 0 0.276 0.224 0.5 0.5 0.5 0.068 0 0.133-0.014 0.192-0.038l-0.003 0.001c0.165-0.089 0.339-0.159 0.52-0.21h0.010c0.293-0.094 0.63-0.149 0.979-0.149 0.081 0 0.162 0.003 0.241 0.009l-0.011-0.001c0.378 0.025 0.749 0.11 1.101 0.25 0.288 0.111 0.564 0.255 0.819 0.43 0.281 0.19 0.54 0.411 0.77 0.66 0.282 0.303 0.525 0.649 0.718 1.024l0.012 0.026c0.083 0.167 0.253 0.28 0.449 0.28 0 0 0 0 0.001 0h-0c0.153-0.004 0.288-0.073 0.382-0.18l0.001-0.001c0.072-0.085 0.116-0.196 0.116-0.318 0-0.085-0.021-0.165-0.059-0.234l0.001 0.003c-0.294-0.586-0.669-1.085-1.117-1.507l-0.003-0.003zM15.6 4.28c0.133-0.091 0.219-0.242 0.219-0.413 0-0.276-0.224-0.5-0.5-0.5-0.064 0-0.126 0.012-0.182 0.034l0.003-0.001c-0.454 0.235-0.992 0.372-1.561 0.372-0.408 0-0.8-0.071-1.163-0.201l0.024 0.008c-0.050-0.018-0.107-0.029-0.167-0.029-0.218 0-0.404 0.14-0.472 0.335l-0.001 0.003c-0.014 0.045-0.022 0.097-0.022 0.151 0 0.223 0.141 0.414 0.339 0.488l0.004 0.001c0.442 0.151 0.95 0.238 1.479 0.24h0.001c0.008 0 0.016 0 0.025 0 0.722 0 1.403-0.181 1.997-0.501l-0.023 0.011z">
            </path>
        </symbol>
        <symbol id="icon-marker" viewBox="0 0 32 32">
            <path
                d="M21.333 16c0 2.946-2.388 5.333-5.333 5.333s-5.333-2.388-5.333-5.333c0-2.946 2.388-5.333 5.333-5.333s5.333 2.388 5.333 5.333z">
            </path>
            <path fill="none" stroke="none" style="stroke: var(--color2 )" stroke-linejoin="miter" stroke-linecap="butt"
                stroke-miterlimit="4" stroke-width="1.7778"
                d="M31.111 16c0 8.346-6.765 15.111-15.111 15.111s-15.111-6.765-15.111-15.111c0-8.346 6.765-15.111 15.111-15.111s15.111 6.765 15.111 15.111z">
            </path>
        </symbol>
        <symbol id="icon-gifts" viewBox="0 0 32 32">
            <path
                d="M6 5.001c0.053-2.721 2.271-4.907 5-4.907s4.947 2.186 5 4.902l0 0.005c0.053-2.721 2.271-4.907 5-4.907s4.947 2.186 5 4.902l0 0.005v0.011c0 0.14 0 0.54-0.076 0.988h4.076c1.105 0 2 0.895 2 2v0 2c0 1.105-0.895 2-2 2v0h-28c-1.105 0-2-0.895-2-2v0-2c0-1.105 0.895-2 2-2v0h4.076c-0.049-0.286-0.077-0.615-0.077-0.95 0-0.013 0-0.027 0-0.040v0.002-0.011zM8.137 6h5.863v-1.001c-0.041-1.626-1.368-2.928-3-2.928s-2.959 1.302-3 2.924l-0 0.004c0 0.171 0.004 0.549 0.089 0.86 0.015 0.055 0.031 0.102 0.051 0.147l-0.003-0.007zM18 6h5.865c0.015-0.038 0.031-0.085 0.043-0.133l0.002-0.008c0.087-0.311 0.091-0.69 0.091-0.859 0-1.657-1.343-3-3-3s-3 1.343-3 3v0 0.999zM30 14v15.001c0 1.656-1.343 2.999-2.999 2.999-0.001 0-0.001 0-0.002 0h-8.999v-18h12zM4.999 32c-1.656 0-2.999-1.343-2.999-2.999 0-0.001 0-0.001 0-0.002v0-14.997h12v17.998h-9.001z">
            </path>
        </symbol>
        <symbol id="icon-close" viewBox="0 0 32 32">
            <path
                d="M23.734 10.304l-1.504-1.504-5.963 5.962-5.962-5.962-1.504 1.504 5.962 5.962-5.962 5.963 1.504 1.504 5.962-5.963 5.963 5.963 1.504-1.504-5.963-5.963 5.963-5.962z">
            </path>
        </symbol>
    </defs>
</svg>